<svg width="48" height="48" viewBox="0 0 48 48" fill="none" xmlns="http://www.w3.org/2000/svg">
<g id="Car, Service, Parts/Engine">
<g id="Group">
<g id="Group_2">
<g id="Path">
<path d="M2 18V34" stroke="#2E1066" stroke-width="2" stroke-linecap="round" stroke-linejoin="round"/>
<path d="M2 18V34" stroke="#410F9E" stroke-width="2" stroke-linecap="round" stroke-linejoin="round"/>
<path d="M2 18V34" stroke="#453888" stroke-width="2" stroke-linecap="round" stroke-linejoin="round"/>
<path d="M2 18V34" stroke="#5946D7" stroke-width="2" stroke-linecap="round" stroke-linejoin="round"/>
</g>
<g id="Path_2">
<path d="M24 6V14" stroke="#2E1066" stroke-width="2" stroke-linecap="round" stroke-linejoin="round"/>
<path d="M24 6V14" stroke="#410F9E" stroke-width="2" stroke-linecap="round" stroke-linejoin="round"/>
<path d="M24 6V14" stroke="#453888" stroke-width="2" stroke-linecap="round" stroke-linejoin="round"/>
<path d="M24 6V14" stroke="#5946D7" stroke-width="2" stroke-linecap="round" stroke-linejoin="round"/>
</g>
<g id="Path_3">
<path d="M18 6H30" stroke="#2E1066" stroke-width="2" stroke-linecap="round" stroke-linejoin="round"/>
<path d="M18 6H30" stroke="#410F9E" stroke-width="2" stroke-linecap="round" stroke-linejoin="round"/>
<path d="M18 6H30" stroke="#453888" stroke-width="2" stroke-linecap="round" stroke-linejoin="round"/>
<path d="M18 6H30" stroke="#5946D7" stroke-width="2" stroke-linecap="round" stroke-linejoin="round"/>
</g>
<g id="Path_4">
<path fill-rule="evenodd" clip-rule="evenodd" d="M40 18V22H36L32 14H16L12 18H8V34H14L17.448 40.894C17.786 41.572 18.478 42 19.236 42H32C33.104 42 34 41.104 34 40V34H40V38H44C45.104 38 46 37.104 46 36V20C46 18.896 45.104 18 44 18H40Z" stroke="#2E1066" stroke-width="2" stroke-linecap="round" stroke-linejoin="round"/>
<path fill-rule="evenodd" clip-rule="evenodd" d="M40 18V22H36L32 14H16L12 18H8V34H14L17.448 40.894C17.786 41.572 18.478 42 19.236 42H32C33.104 42 34 41.104 34 40V34H40V38H44C45.104 38 46 37.104 46 36V20C46 18.896 45.104 18 44 18H40Z" stroke="#410F9E" stroke-width="2" stroke-linecap="round" stroke-linejoin="round"/>
<path fill-rule="evenodd" clip-rule="evenodd" d="M40 18V22H36L32 14H16L12 18H8V34H14L17.448 40.894C17.786 41.572 18.478 42 19.236 42H32C33.104 42 34 41.104 34 40V34H40V38H44C45.104 38 46 37.104 46 36V20C46 18.896 45.104 18 44 18H40Z" stroke="#453888" stroke-width="2" stroke-linecap="round" stroke-linejoin="round"/>
<path fill-rule="evenodd" clip-rule="evenodd" d="M40 18V22H36L32 14H16L12 18H8V34H14L17.448 40.894C17.786 41.572 18.478 42 19.236 42H32C33.104 42 34 41.104 34 40V34H40V38H44C45.104 38 46 37.104 46 36V20C46 18.896 45.104 18 44 18H40Z" stroke="#5946D7" stroke-width="2" stroke-linecap="round" stroke-linejoin="round"/>
</g>
<g id="Path_5">
<path d="M8 26H2" stroke="#2E1066" stroke-width="2" stroke-linecap="round" stroke-linejoin="round"/>
<path d="M8 26H2" stroke="#410F9E" stroke-width="2" stroke-linecap="round" stroke-linejoin="round"/>
<path d="M8 26H2" stroke="#453888" stroke-width="2" stroke-linecap="round" stroke-linejoin="round"/>
<path d="M8 26H2" stroke="#5946D7" stroke-width="2" stroke-linecap="round" stroke-linejoin="round"/>
</g>
</g>
</g>
</g>
</svg>
