<svg width="48" height="48" viewBox="0 0 48 48" fill="none" xmlns="http://www.w3.org/2000/svg">
<g id="Car, Service, Parts/Glass washer">
<g id="Group">
<g id="Group_2">
<g id="Path">
<path d="M15 26L24 44" stroke="#2E1066" stroke-width="2" stroke-linecap="round" stroke-linejoin="round"/>
<path d="M15 26L24 44" stroke="#410F9E" stroke-width="2" stroke-linecap="round" stroke-linejoin="round"/>
<path d="M15 26L24 44" stroke="#453888" stroke-width="2" stroke-linecap="round" stroke-linejoin="round"/>
<path d="M15 26L24 44" stroke="#5946D7" stroke-width="2" stroke-linecap="round" stroke-linejoin="round"/>
</g>
<g id="Path_2">
<path fill-rule="evenodd" clip-rule="evenodd" d="M42.5771 22.946L34.9491 38.2C34.4751 39.15 33.3351 39.574 32.3711 39.132C29.6551 37.886 26.7251 37.282 23.7951 37.28C20.8651 37.282 17.9351 37.886 15.2191 39.132C14.2531 39.574 13.1131 39.15 12.6391 38.2L5.01314 22.946C4.52914 21.98 4.88914 20.774 5.84914 20.282C11.4691 17.4 17.6291 16.002 23.7931 16C29.9571 16.002 36.1171 17.4 41.7391 20.282C42.7011 20.776 43.0591 21.98 42.5771 22.946Z" stroke="#2E1066" stroke-width="2" stroke-linecap="round" stroke-linejoin="round"/>
<path fill-rule="evenodd" clip-rule="evenodd" d="M42.5771 22.946L34.9491 38.2C34.4751 39.15 33.3351 39.574 32.3711 39.132C29.6551 37.886 26.7251 37.282 23.7951 37.28C20.8651 37.282 17.9351 37.886 15.2191 39.132C14.2531 39.574 13.1131 39.15 12.6391 38.2L5.01314 22.946C4.52914 21.98 4.88914 20.774 5.84914 20.282C11.4691 17.4 17.6291 16.002 23.7931 16C29.9571 16.002 36.1171 17.4 41.7391 20.282C42.7011 20.776 43.0591 21.98 42.5771 22.946Z" stroke="#410F9E" stroke-width="2" stroke-linecap="round" stroke-linejoin="round"/>
<path fill-rule="evenodd" clip-rule="evenodd" d="M42.5771 22.946L34.9491 38.2C34.4751 39.15 33.3351 39.574 32.3711 39.132C29.6551 37.886 26.7251 37.282 23.7951 37.28C20.8651 37.282 17.9351 37.886 15.2191 39.132C14.2531 39.574 13.1131 39.15 12.6391 38.2L5.01314 22.946C4.52914 21.98 4.88914 20.774 5.84914 20.282C11.4691 17.4 17.6291 16.002 23.7931 16C29.9571 16.002 36.1171 17.4 41.7391 20.282C42.7011 20.776 43.0591 21.98 42.5771 22.946Z" stroke="#453888" stroke-width="2" stroke-linecap="round" stroke-linejoin="round"/>
<path fill-rule="evenodd" clip-rule="evenodd" d="M42.5771 22.946L34.9491 38.2C34.4751 39.15 33.3351 39.574 32.3711 39.132C29.6551 37.886 26.7251 37.282 23.7951 37.28C20.8651 37.282 17.9351 37.886 15.2191 39.132C14.2531 39.574 13.1131 39.15 12.6391 38.2L5.01314 22.946C4.52914 21.98 4.88914 20.774 5.84914 20.282C11.4691 17.4 17.6291 16.002 23.7931 16C29.9571 16.002 36.1171 17.4 41.7391 20.282C42.7011 20.776 43.0591 21.98 42.5771 22.946Z" stroke="#5946D7" stroke-width="2" stroke-linecap="round" stroke-linejoin="round"/>
</g>
<g id="Path_3">
<path d="M24.0001 9.99993C24.0001 9.66793 23.9701 9.33393 23.9101 9.00593" stroke="#2E1066" stroke-width="2" stroke-linecap="round" stroke-linejoin="round"/>
<path d="M24.0001 9.99993C24.0001 9.66793 23.9701 9.33393 23.9101 9.00593" stroke="#410F9E" stroke-width="2" stroke-linecap="round" stroke-linejoin="round"/>
<path d="M24.0001 9.99993C24.0001 9.66793 23.9701 9.33393 23.9101 9.00593" stroke="#453888" stroke-width="2" stroke-linecap="round" stroke-linejoin="round"/>
<path d="M24.0001 9.99993C24.0001 9.66793 23.9701 9.33393 23.9101 9.00593" stroke="#5946D7" stroke-width="2" stroke-linecap="round" stroke-linejoin="round"/>
</g>
<g id="Path_4">
<path d="M24.0899 9.00593C24.0299 9.33393 23.9999 9.66793 23.9999 9.99993" stroke="#2E1066" stroke-width="2" stroke-linecap="round" stroke-linejoin="round"/>
<path d="M24.0899 9.00593C24.0299 9.33393 23.9999 9.66793 23.9999 9.99993" stroke="#410F9E" stroke-width="2" stroke-linecap="round" stroke-linejoin="round"/>
<path d="M24.0899 9.00593C24.0299 9.33393 23.9999 9.66793 23.9999 9.99993" stroke="#453888" stroke-width="2" stroke-linecap="round" stroke-linejoin="round"/>
<path d="M24.0899 9.00593C24.0299 9.33393 23.9999 9.66793 23.9999 9.99993" stroke="#5946D7" stroke-width="2" stroke-linecap="round" stroke-linejoin="round"/>
</g>
<g id="Path_5">
<path d="M35.1733 5.7582C34.9253 5.5302 34.6613 5.3242 34.3853 5.1422" stroke="#2E1066" stroke-width="2" stroke-linecap="round" stroke-linejoin="round"/>
<path d="M35.1733 5.7582C34.9253 5.5302 34.6613 5.3242 34.3853 5.1422" stroke="#410F9E" stroke-width="2" stroke-linecap="round" stroke-linejoin="round"/>
<path d="M35.1733 5.7582C34.9253 5.5302 34.6613 5.3242 34.3853 5.1422" stroke="#453888" stroke-width="2" stroke-linecap="round" stroke-linejoin="round"/>
<path d="M35.1733 5.7582C34.9253 5.5302 34.6613 5.3242 34.3853 5.1422" stroke="#5946D7" stroke-width="2" stroke-linecap="round" stroke-linejoin="round"/>
</g>
<g id="Path_6">
<path d="M28.7604 4.22585C28.3964 4.31985 28.0484 4.45585 27.7084 4.61985" stroke="#2E1066" stroke-width="2" stroke-linecap="round" stroke-linejoin="round"/>
<path d="M28.7604 4.22585C28.3964 4.31985 28.0484 4.45585 27.7084 4.61985" stroke="#410F9E" stroke-width="2" stroke-linecap="round" stroke-linejoin="round"/>
<path d="M28.7604 4.22585C28.3964 4.31985 28.0484 4.45585 27.7084 4.61985" stroke="#453888" stroke-width="2" stroke-linecap="round" stroke-linejoin="round"/>
<path d="M28.7604 4.22585C28.3964 4.31985 28.0484 4.45585 27.7084 4.61985" stroke="#5946D7" stroke-width="2" stroke-linecap="round" stroke-linejoin="round"/>
</g>
<g id="Path_7">
<path d="M13.6128 5.1422C13.3368 5.3242 13.0728 5.5302 12.8248 5.7582" stroke="#2E1066" stroke-width="2" stroke-linecap="round" stroke-linejoin="round"/>
<path d="M13.6128 5.1422C13.3368 5.3242 13.0728 5.5302 12.8248 5.7582" stroke="#410F9E" stroke-width="2" stroke-linecap="round" stroke-linejoin="round"/>
<path d="M13.6128 5.1422C13.3368 5.3242 13.0728 5.5302 12.8248 5.7582" stroke="#453888" stroke-width="2" stroke-linecap="round" stroke-linejoin="round"/>
<path d="M13.6128 5.1422C13.3368 5.3242 13.0728 5.5302 12.8248 5.7582" stroke="#5946D7" stroke-width="2" stroke-linecap="round" stroke-linejoin="round"/>
</g>
<g id="Path_8">
<path d="M19.2377 4.22585C19.6017 4.31985 19.9497 4.45585 20.2897 4.61985" stroke="#2E1066" stroke-width="2" stroke-linecap="round" stroke-linejoin="round"/>
<path d="M19.2377 4.22585C19.6017 4.31985 19.9497 4.45585 20.2897 4.61985" stroke="#410F9E" stroke-width="2" stroke-linecap="round" stroke-linejoin="round"/>
<path d="M19.2377 4.22585C19.6017 4.31985 19.9497 4.45585 20.2897 4.61985" stroke="#453888" stroke-width="2" stroke-linecap="round" stroke-linejoin="round"/>
<path d="M19.2377 4.22585C19.6017 4.31985 19.9497 4.45585 20.2897 4.61985" stroke="#5946D7" stroke-width="2" stroke-linecap="round" stroke-linejoin="round"/>
</g>
</g>
<g id="Group_3">
<g id="Path_9">
<path d="M24 26V24" stroke="#2E1066" stroke-width="2" stroke-linecap="round" stroke-linejoin="round"/>
<path d="M24 26V24" stroke="#410F9E" stroke-width="2" stroke-linecap="round" stroke-linejoin="round"/>
<path d="M24 26V24" stroke="#453888" stroke-width="2" stroke-linecap="round" stroke-linejoin="round"/>
<path d="M24 26V24" stroke="#5946D7" stroke-width="2" stroke-linecap="round" stroke-linejoin="round"/>
</g>
<g id="Path_10">
<path d="M24 16V18" stroke="#2E1066" stroke-width="2" stroke-linecap="round" stroke-linejoin="round"/>
<path d="M24 16V18" stroke="#410F9E" stroke-width="2" stroke-linecap="round" stroke-linejoin="round"/>
<path d="M24 16V18" stroke="#453888" stroke-width="2" stroke-linecap="round" stroke-linejoin="round"/>
<path d="M24 16V18" stroke="#5946D7" stroke-width="2" stroke-linecap="round" stroke-linejoin="round"/>
</g>
</g>
</g>
</g>
</svg>
