<svg width="47" height="16" viewBox="0 0 47 16" fill="none" xmlns="http://www.w3.org/2000/svg">
<g id="mastercard" clip-path="url(#clip0_854_1047)">
<path id="Vector" d="M20.2023 15.73H16.4258L18.7878 1.08984H22.5642L20.2023 15.73Z" fill="white"/>
<path id="Vector_2" d="M33.893 1.4475C33.1481 1.15128 31.9667 0.824219 30.5059 0.824219C26.7764 0.824219 24.1501 2.81766 24.134 5.66768C24.103 7.77042 26.0143 8.93832 27.4439 9.63948C28.9049 10.3559 29.4015 10.8235 29.4015 11.4621C29.3867 12.4429 28.2209 12.895 27.1336 12.895C25.6258 12.895 24.818 12.6619 23.5902 12.1163L23.093 11.8823L22.5645 15.1687C23.4503 15.5732 25.0821 15.9322 26.7764 15.9478C30.739 15.9478 33.3188 13.9853 33.3494 10.9481C33.3644 9.28152 32.3552 8.00454 30.1793 6.96104C28.8585 6.29118 28.0495 5.8395 28.0495 5.15411C28.065 4.53102 28.7337 3.89284 30.2247 3.89284C31.4525 3.86158 32.3545 4.15739 33.0379 4.4534L33.3795 4.60886L33.893 1.4475Z" fill="white"/>
<path id="Vector_3" d="M38.9113 10.5435C39.2223 9.70241 40.4191 6.44729 40.4191 6.44729C40.4034 6.47855 40.7294 5.59071 40.9159 5.04567L41.1798 6.30716C41.1798 6.30716 41.895 9.81148 42.0503 10.5435C41.4602 10.5435 39.6572 10.5435 38.9113 10.5435ZM43.5729 1.08984H40.6518C39.751 1.08984 39.0666 1.35439 38.6779 2.30454L33.0684 15.7297H37.031C37.031 15.7297 37.6834 13.9228 37.8236 13.5336C38.2583 13.5336 42.1131 13.5336 42.6724 13.5336C42.7808 14.0477 43.123 15.7297 43.123 15.7297H46.6197L43.5729 1.08984Z" fill="white"/>
<path id="Vector_4" d="M13.2712 1.08984L9.57275 11.073L9.16855 9.04828C8.48481 6.71206 6.34036 4.17378 3.94727 2.91168L7.33494 15.7144H11.3285L17.2646 1.08984H13.2712Z" fill="white"/>
<path id="Vector_5" d="M6.13824 1.08984H0.0621608L0 1.38566C4.73973 2.60055 7.87875 5.52903 9.16846 9.0489L7.84757 2.32048C7.63011 1.38544 6.96183 1.12069 6.13824 1.08984Z" fill="#B1B4B9"/>
</g>
<defs>
<clipPath id="clip0_854_1047">
<rect width="47" height="16" fill="white"/>
</clipPath>
</defs>
</svg>
