<svg width="54" height="16" viewBox="0 0 54 16" fill="none" xmlns="http://www.w3.org/2000/svg">
<g id="mir" clip-path="url(#clip0_854_1059)">
<path id="Vector" fill-rule="evenodd" clip-rule="evenodd" d="M5.23306 0.827687C5.70938 0.824825 7.12499 0.696804 7.72461 2.72886C8.12852 4.09767 8.77192 6.33983 9.65485 9.45541H10.0143C10.9612 6.17076 11.6117 3.92858 11.9657 2.72886C12.5716 0.675637 14.0862 0.827728 14.6921 0.827728L19.3664 0.827733V15.4283H14.6022V6.82396H14.2827L11.6268 15.4283H8.04235L5.3865 6.81758H5.06702V15.4283H0.302734V0.827733L5.23306 0.827687ZM26.2079 0.827733V9.43852H26.5879L29.8185 2.35793C30.4456 0.948874 31.7823 0.827733 31.7823 0.827733H36.3926V15.4284H31.5289V6.81758H31.1488L27.9816 13.8982C27.3545 15.3008 25.9545 15.4284 25.9545 15.4284H21.3441V0.827733H26.2079ZM53.2041 7.76606C52.5256 9.69656 50.395 11.0791 48.0362 11.0791H42.9355V15.4284H38.3103V7.76606H53.2041Z" fill="white"/>
<path id="Vector_2" fill-rule="evenodd" clip-rule="evenodd" d="M48.2598 0.827148H38.0684C38.3109 4.07775 41.0988 6.86047 43.9848 6.86047H53.526C54.0766 4.15884 52.1812 0.827148 48.2598 0.827148Z" fill="white"/>
</g>
<defs>
<clipPath id="clip0_854_1059">
<rect width="54" height="16" fill="white"/>
</clipPath>
</defs>
</svg>
