<svg width="48" height="48" viewBox="0 0 48 48" fill="none" xmlns="http://www.w3.org/2000/svg">
<g id="Car, Service, Parts/parking-car-garage">
<g id="Group">
<g id="Path">
<path d="M17.2188 13.9965H24.7779" stroke="#2E1066" stroke-width="2" stroke-linecap="round" stroke-linejoin="round"/>
<path d="M17.2188 13.9965H24.7779" stroke="#410F9E" stroke-width="2" stroke-linecap="round" stroke-linejoin="round"/>
<path d="M17.2188 13.9965H24.7779" stroke="#453888" stroke-width="2" stroke-linecap="round" stroke-linejoin="round"/>
<path d="M17.2188 13.9965H24.7779" stroke="#5946D7" stroke-width="2" stroke-linecap="round" stroke-linejoin="round"/>
</g>
<g id="Path_2">
<path d="M17.9986 24H11.9961V38.0058" stroke="#2E1066" stroke-width="2" stroke-linecap="round" stroke-linejoin="round"/>
<path d="M17.9986 24H11.9961V38.0058" stroke="#410F9E" stroke-width="2" stroke-linecap="round" stroke-linejoin="round"/>
<path d="M17.9986 24H11.9961V38.0058" stroke="#453888" stroke-width="2" stroke-linecap="round" stroke-linejoin="round"/>
<path d="M17.9986 24H11.9961V38.0058" stroke="#5946D7" stroke-width="2" stroke-linecap="round" stroke-linejoin="round"/>
</g>
<g id="Path_3">
<path d="M11.9955 38.0059H3.99219V15.1204C3.99219 13.7477 4.73669 12.483 5.937 11.817L19.1645 4.46795C20.3061 3.8336 21.6944 3.8336 22.836 4.46795L36.0635 11.817C37.2628 12.4838 38.0064 13.7482 38.0064 15.1204V17.9976" stroke="#2E1066" stroke-width="2" stroke-linecap="round" stroke-linejoin="round"/>
<path d="M11.9955 38.0059H3.99219V15.1204C3.99219 13.7477 4.73669 12.483 5.937 11.817L19.1645 4.46795C20.3061 3.8336 21.6944 3.8336 22.836 4.46795L36.0635 11.817C37.2628 12.4838 38.0064 13.7482 38.0064 15.1204V17.9976" stroke="#410F9E" stroke-width="2" stroke-linecap="round" stroke-linejoin="round"/>
<path d="M11.9955 38.0059H3.99219V15.1204C3.99219 13.7477 4.73669 12.483 5.937 11.817L19.1645 4.46795C20.3061 3.8336 21.6944 3.8336 22.836 4.46795L36.0635 11.817C37.2628 12.4838 38.0064 13.7482 38.0064 15.1204V17.9976" stroke="#453888" stroke-width="2" stroke-linecap="round" stroke-linejoin="round"/>
<path d="M11.9955 38.0059H3.99219V15.1204C3.99219 13.7477 4.73669 12.483 5.937 11.817L19.1645 4.46795C20.3061 3.8336 21.6944 3.8336 22.836 4.46795L36.0635 11.817C37.2628 12.4838 38.0064 13.7482 38.0064 15.1204V17.9976" stroke="#5946D7" stroke-width="2" stroke-linecap="round" stroke-linejoin="round"/>
</g>
<g id="Path_4">
<path d="M44.008 35.6052C44.008 33.3951 42.2164 31.6035 40.0064 31.6035H23.9997C21.7897 31.6035 19.998 33.3951 19.998 35.6052" stroke="#2E1066" stroke-width="2" stroke-linecap="round" stroke-linejoin="round"/>
<path d="M44.008 35.6052C44.008 33.3951 42.2164 31.6035 40.0064 31.6035H23.9997C21.7897 31.6035 19.998 33.3951 19.998 35.6052" stroke="#410F9E" stroke-width="2" stroke-linecap="round" stroke-linejoin="round"/>
<path d="M44.008 35.6052C44.008 33.3951 42.2164 31.6035 40.0064 31.6035H23.9997C21.7897 31.6035 19.998 33.3951 19.998 35.6052" stroke="#453888" stroke-width="2" stroke-linecap="round" stroke-linejoin="round"/>
<path d="M44.008 35.6052C44.008 33.3951 42.2164 31.6035 40.0064 31.6035H23.9997C21.7897 31.6035 19.998 33.3951 19.998 35.6052" stroke="#5946D7" stroke-width="2" stroke-linecap="round" stroke-linejoin="round"/>
</g>
<g id="Path_5">
<path d="M19.998 35.6055V42.0081C19.998 43.1132 20.8939 44.009 21.9989 44.009H23.9797C25.0847 44.009 25.9805 43.1132 25.9805 42.0081V40.6856H38.0256V42.0081C38.0256 43.1132 38.9214 44.009 40.0264 44.009H42.0072C43.1122 44.009 44.008 43.1132 44.008 42.0081V35.6055" stroke="#2E1066" stroke-width="2" stroke-linecap="round" stroke-linejoin="round"/>
<path d="M19.998 35.6055V42.0081C19.998 43.1132 20.8939 44.009 21.9989 44.009H23.9797C25.0847 44.009 25.9805 43.1132 25.9805 42.0081V40.6856H38.0256V42.0081C38.0256 43.1132 38.9214 44.009 40.0264 44.009H42.0072C43.1122 44.009 44.008 43.1132 44.008 42.0081V35.6055" stroke="#410F9E" stroke-width="2" stroke-linecap="round" stroke-linejoin="round"/>
<path d="M19.998 35.6055V42.0081C19.998 43.1132 20.8939 44.009 21.9989 44.009H23.9797C25.0847 44.009 25.9805 43.1132 25.9805 42.0081V40.6856H38.0256V42.0081C38.0256 43.1132 38.9214 44.009 40.0264 44.009H42.0072C43.1122 44.009 44.008 43.1132 44.008 42.0081V35.6055" stroke="#453888" stroke-width="2" stroke-linecap="round" stroke-linejoin="round"/>
<path d="M19.998 35.6055V42.0081C19.998 43.1132 20.8939 44.009 21.9989 44.009H23.9797C25.0847 44.009 25.9805 43.1132 25.9805 42.0081V40.6856H38.0256V42.0081C38.0256 43.1132 38.9214 44.009 40.0264 44.009H42.0072C43.1122 44.009 44.008 43.1132 44.008 42.0081V35.6055" stroke="#5946D7" stroke-width="2" stroke-linecap="round" stroke-linejoin="round"/>
</g>
<g id="Path_6">
<path d="M27.4756 36.2055H24.4844" stroke="#2E1066" stroke-width="2" stroke-linecap="round" stroke-linejoin="round"/>
<path d="M27.4756 36.2055H24.4844" stroke="#410F9E" stroke-width="2" stroke-linecap="round" stroke-linejoin="round"/>
<path d="M27.4756 36.2055H24.4844" stroke="#453888" stroke-width="2" stroke-linecap="round" stroke-linejoin="round"/>
<path d="M27.4756 36.2055H24.4844" stroke="#5946D7" stroke-width="2" stroke-linecap="round" stroke-linejoin="round"/>
</g>
<g id="Path_7">
<path d="M39.5225 36.2055H36.5312" stroke="#2E1066" stroke-width="2" stroke-linecap="round" stroke-linejoin="round"/>
<path d="M39.5225 36.2055H36.5312" stroke="#410F9E" stroke-width="2" stroke-linecap="round" stroke-linejoin="round"/>
<path d="M39.5225 36.2055H36.5312" stroke="#453888" stroke-width="2" stroke-linecap="round" stroke-linejoin="round"/>
<path d="M39.5225 36.2055H36.5312" stroke="#5946D7" stroke-width="2" stroke-linecap="round" stroke-linejoin="round"/>
</g>
<g id="Path_8">
<path d="M41.0176 31.4772L44.0088 29.9826" stroke="#2E1066" stroke-width="2" stroke-linecap="round" stroke-linejoin="round"/>
<path d="M41.0176 31.4772L44.0088 29.9826" stroke="#410F9E" stroke-width="2" stroke-linecap="round" stroke-linejoin="round"/>
<path d="M41.0176 31.4772L44.0088 29.9826" stroke="#453888" stroke-width="2" stroke-linecap="round" stroke-linejoin="round"/>
<path d="M41.0176 31.4772L44.0088 29.9826" stroke="#5946D7" stroke-width="2" stroke-linecap="round" stroke-linejoin="round"/>
</g>
<g id="Path_9">
<path d="M22.9993 31.4772L19.998 29.9826" stroke="#2E1066" stroke-width="2" stroke-linecap="round" stroke-linejoin="round"/>
<path d="M22.9993 31.4772L19.998 29.9826" stroke="#410F9E" stroke-width="2" stroke-linecap="round" stroke-linejoin="round"/>
<path d="M22.9993 31.4772L19.998 29.9826" stroke="#453888" stroke-width="2" stroke-linecap="round" stroke-linejoin="round"/>
<path d="M22.9993 31.4772L19.998 29.9826" stroke="#5946D7" stroke-width="2" stroke-linecap="round" stroke-linejoin="round"/>
</g>
<g id="Path_10">
<path d="M27.1368 24C25.748 24.0035 24.543 24.9594 24.2236 26.311L22.9551 31.7332L24.2236 26.311C24.543 24.9594 25.748 24.0035 27.1368 24H36.8689C38.2577 24.0035 39.4627 24.9594 39.7821 26.311L41.0506 31.7332" stroke="#2E1066" stroke-width="2" stroke-linecap="round" stroke-linejoin="round"/>
<path d="M27.1368 24C25.748 24.0035 24.543 24.9594 24.2236 26.311L22.9551 31.7332L24.2236 26.311C24.543 24.9594 25.748 24.0035 27.1368 24H36.8689C38.2577 24.0035 39.4627 24.9594 39.7821 26.311L41.0506 31.7332" stroke="#410F9E" stroke-width="2" stroke-linecap="round" stroke-linejoin="round"/>
<path d="M27.1368 24C25.748 24.0035 24.543 24.9594 24.2236 26.311L22.9551 31.7332L24.2236 26.311C24.543 24.9594 25.748 24.0035 27.1368 24H36.8689C38.2577 24.0035 39.4627 24.9594 39.7821 26.311L41.0506 31.7332" stroke="#453888" stroke-width="2" stroke-linecap="round" stroke-linejoin="round"/>
<path d="M27.1368 24C25.748 24.0035 24.543 24.9594 24.2236 26.311L22.9551 31.7332L24.2236 26.311C24.543 24.9594 25.748 24.0035 27.1368 24H36.8689C38.2577 24.0035 39.4627 24.9594 39.7821 26.311L41.0506 31.7332" stroke="#5946D7" stroke-width="2" stroke-linecap="round" stroke-linejoin="round"/>
</g>
</g>
</g>
</svg>
