<svg width="24" height="24" viewBox="0 0 24 24" fill="none" xmlns="http://www.w3.org/2000/svg">
<g id="Phones/Phone, Call">
<g id="Group">
<g id="Group_2">
<g id="Path">
<path fill-rule="evenodd" clip-rule="evenodd" d="M18.9645 16.61L17.7915 15.437C17.2055 14.851 16.2555 14.851 15.6705 15.437L14.7485 16.359C14.5425 16.565 14.2305 16.634 13.9645 16.517C12.6285 15.932 11.3085 15.045 10.1315 13.868C8.95954 12.696 8.07554 11.382 7.48954 10.051C7.36754 9.77597 7.43854 9.45297 7.65154 9.23997L8.47754 8.41397C9.14854 7.74297 9.14854 6.79397 8.56254 6.20797L7.38954 5.03497C6.60854 4.25397 5.34254 4.25397 4.56154 5.03497L3.90954 5.68597C3.16854 6.42697 2.85954 7.49597 3.05954 8.55597C3.55354 11.169 5.07154 14.03 7.52054 16.479C9.96954 18.928 12.8305 20.446 15.4435 20.94C16.5035 21.14 17.5725 20.831 18.3135 20.09L18.9645 19.439C19.7455 18.658 19.7455 17.392 18.9645 16.61V16.61Z" stroke="#2E1066" stroke-width="1.5" stroke-linecap="round" stroke-linejoin="round"/>
<path fill-rule="evenodd" clip-rule="evenodd" d="M18.9645 16.61L17.7915 15.437C17.2055 14.851 16.2555 14.851 15.6705 15.437L14.7485 16.359C14.5425 16.565 14.2305 16.634 13.9645 16.517C12.6285 15.932 11.3085 15.045 10.1315 13.868C8.95954 12.696 8.07554 11.382 7.48954 10.051C7.36754 9.77597 7.43854 9.45297 7.65154 9.23997L8.47754 8.41397C9.14854 7.74297 9.14854 6.79397 8.56254 6.20797L7.38954 5.03497C6.60854 4.25397 5.34254 4.25397 4.56154 5.03497L3.90954 5.68597C3.16854 6.42697 2.85954 7.49597 3.05954 8.55597C3.55354 11.169 5.07154 14.03 7.52054 16.479C9.96954 18.928 12.8305 20.446 15.4435 20.94C16.5035 21.14 17.5725 20.831 18.3135 20.09L18.9645 19.439C19.7455 18.658 19.7455 17.392 18.9645 16.61V16.61Z" stroke="#410F9E" stroke-width="1.5" stroke-linecap="round" stroke-linejoin="round"/>
<path fill-rule="evenodd" clip-rule="evenodd" d="M18.9645 16.61L17.7915 15.437C17.2055 14.851 16.2555 14.851 15.6705 15.437L14.7485 16.359C14.5425 16.565 14.2305 16.634 13.9645 16.517C12.6285 15.932 11.3085 15.045 10.1315 13.868C8.95954 12.696 8.07554 11.382 7.48954 10.051C7.36754 9.77597 7.43854 9.45297 7.65154 9.23997L8.47754 8.41397C9.14854 7.74297 9.14854 6.79397 8.56254 6.20797L7.38954 5.03497C6.60854 4.25397 5.34254 4.25397 4.56154 5.03497L3.90954 5.68597C3.16854 6.42697 2.85954 7.49597 3.05954 8.55597C3.55354 11.169 5.07154 14.03 7.52054 16.479C9.96954 18.928 12.8305 20.446 15.4435 20.94C16.5035 21.14 17.5725 20.831 18.3135 20.09L18.9645 19.439C19.7455 18.658 19.7455 17.392 18.9645 16.61V16.61Z" stroke="#453888" stroke-width="1.5" stroke-linecap="round" stroke-linejoin="round"/>
<path fill-rule="evenodd" clip-rule="evenodd" d="M18.9645 16.61L17.7915 15.437C17.2055 14.851 16.2555 14.851 15.6705 15.437L14.7485 16.359C14.5425 16.565 14.2305 16.634 13.9645 16.517C12.6285 15.932 11.3085 15.045 10.1315 13.868C8.95954 12.696 8.07554 11.382 7.48954 10.051C7.36754 9.77597 7.43854 9.45297 7.65154 9.23997L8.47754 8.41397C9.14854 7.74297 9.14854 6.79397 8.56254 6.20797L7.38954 5.03497C6.60854 4.25397 5.34254 4.25397 4.56154 5.03497L3.90954 5.68597C3.16854 6.42697 2.85954 7.49597 3.05954 8.55597C3.55354 11.169 5.07154 14.03 7.52054 16.479C9.96954 18.928 12.8305 20.446 15.4435 20.94C16.5035 21.14 17.5725 20.831 18.3135 20.09L18.9645 19.439C19.7455 18.658 19.7455 17.392 18.9645 16.61V16.61Z" stroke="#5946D7" stroke-width="1.5" stroke-linecap="round" stroke-linejoin="round"/>
<path fill-rule="evenodd" clip-rule="evenodd" d="M18.9645 16.61L17.7915 15.437C17.2055 14.851 16.2555 14.851 15.6705 15.437L14.7485 16.359C14.5425 16.565 14.2305 16.634 13.9645 16.517C12.6285 15.932 11.3085 15.045 10.1315 13.868C8.95954 12.696 8.07554 11.382 7.48954 10.051C7.36754 9.77597 7.43854 9.45297 7.65154 9.23997L8.47754 8.41397C9.14854 7.74297 9.14854 6.79397 8.56254 6.20797L7.38954 5.03497C6.60854 4.25397 5.34254 4.25397 4.56154 5.03497L3.90954 5.68597C3.16854 6.42697 2.85954 7.49597 3.05954 8.55597C3.55354 11.169 5.07154 14.03 7.52054 16.479C9.96954 18.928 12.8305 20.446 15.4435 20.94C16.5035 21.14 17.5725 20.831 18.3135 20.09L18.9645 19.439C19.7455 18.658 19.7455 17.392 18.9645 16.61V16.61Z" stroke="#6B59CC" stroke-width="1.5" stroke-linecap="round" stroke-linejoin="round"/>
</g>
<g id="Vector" opacity="0.5">
<path d="M13 6.99086C14.031 6.97686 15.067 7.35886 15.854 8.14586C16.641 8.93286 17.023 9.96887 17.009 10.9999M13 2.96387C15.056 2.96387 17.113 3.74887 18.682 5.31787C20.251 6.88687 21.036 8.94387 21.036 10.9999" stroke="#2E1066" stroke-width="1.5" stroke-linecap="round" stroke-linejoin="round"/>
<path d="M13 6.99086C14.031 6.97686 15.067 7.35886 15.854 8.14586C16.641 8.93286 17.023 9.96887 17.009 10.9999M13 2.96387C15.056 2.96387 17.113 3.74887 18.682 5.31787C20.251 6.88687 21.036 8.94387 21.036 10.9999" stroke="#410F9E" stroke-width="1.5" stroke-linecap="round" stroke-linejoin="round"/>
<path d="M13 6.99086C14.031 6.97686 15.067 7.35886 15.854 8.14586C16.641 8.93286 17.023 9.96887 17.009 10.9999M13 2.96387C15.056 2.96387 17.113 3.74887 18.682 5.31787C20.251 6.88687 21.036 8.94387 21.036 10.9999" stroke="#453888" stroke-width="1.5" stroke-linecap="round" stroke-linejoin="round"/>
<path d="M13 6.99086C14.031 6.97686 15.067 7.35886 15.854 8.14586C16.641 8.93286 17.023 9.96887 17.009 10.9999M13 2.96387C15.056 2.96387 17.113 3.74887 18.682 5.31787C20.251 6.88687 21.036 8.94387 21.036 10.9999" stroke="#5946D7" stroke-width="1.5" stroke-linecap="round" stroke-linejoin="round"/>
<path d="M13 6.99086C14.031 6.97686 15.067 7.35886 15.854 8.14586C16.641 8.93286 17.023 9.96887 17.009 10.9999M13 2.96387C15.056 2.96387 17.113 3.74887 18.682 5.31787C20.251 6.88687 21.036 8.94387 21.036 10.9999" stroke="#6B59CC" stroke-width="1.5" stroke-linecap="round" stroke-linejoin="round"/>
</g>
</g>
</g>
</g>
</svg>
