<svg width="12" height="12" viewBox="0 0 12 12" fill="none" xmlns="http://www.w3.org/2000/svg">
<g id="General / rate-full" clip-path="url(#clip0_808_76120)">
<path id="Rate Full" d="M6.71167 0.58985L8.2151 3.76128L11.294 4.08785C11.4498 4.10297 11.5976 4.16419 11.7185 4.2637C11.8394 4.3632 11.9279 4.49648 11.9727 4.64651C12.0175 4.79654 12.0165 4.95652 11.97 5.10602C11.9235 5.25552 11.8334 5.38776 11.7114 5.48585L9.25653 7.50442L10.016 10.8979C10.0499 11.0487 10.0387 11.2062 9.98376 11.3507C9.92883 11.4952 9.83258 11.6203 9.70702 11.7105C9.58146 11.8007 9.43213 11.852 9.27764 11.8579C9.12316 11.8638 8.97034 11.8242 8.83824 11.7439L5.99938 10.0167L3.15795 11.743C3.02578 11.8232 2.87297 11.8627 2.71851 11.8567C2.56405 11.8507 2.41475 11.7995 2.28918 11.7094C2.1636 11.6192 2.06729 11.4942 2.01221 11.3497C1.95713 11.2053 1.94572 11.0479 1.97938 10.897L2.74224 7.50442L0.287381 5.48585C0.166199 5.38749 0.0769686 5.25534 0.0310131 5.10619C-0.0149423 4.95703 -0.0155513 4.79758 0.0292636 4.64807C0.0740784 4.49857 0.162297 4.36575 0.282724 4.26646C0.403152 4.16718 0.550359 4.1059 0.705667 4.09042L3.78367 3.76385L5.2871 0.58985C5.35109 0.45513 5.45199 0.341321 5.57806 0.261634C5.70414 0.181947 5.85023 0.139648 5.99938 0.139648C6.14853 0.139648 6.29462 0.181947 6.4207 0.261634C6.54678 0.341321 6.64767 0.45513 6.71167 0.58985Z" fill="#FF9431"/>
</g>
<defs>
<clipPath id="clip0_808_76120">
<rect width="12" height="12" fill="white"/>
</clipPath>
</defs>
</svg>
