<svg width="48" height="48" viewBox="0 0 48 48" fill="none" xmlns="http://www.w3.org/2000/svg">
<g id="Car, Service, Parts/Safety belt">
<g id="Group">
<g id="Group_2">
<g id="Path">
<path fill-rule="evenodd" clip-rule="evenodd" d="M7.73595 24.7085L10.564 21.8805C12.126 20.3185 14.658 20.3185 16.22 21.8805L26.12 31.7805C27.682 33.3425 27.682 35.8745 26.12 37.4365L23.292 40.2645C21.73 41.8265 19.198 41.8265 17.636 40.2645L7.73595 30.3645C6.17395 28.8025 6.17395 26.2705 7.73595 24.7085V24.7085Z" stroke="#2E1066" stroke-width="2" stroke-linecap="round" stroke-linejoin="round"/>
<path fill-rule="evenodd" clip-rule="evenodd" d="M7.73595 24.7085L10.564 21.8805C12.126 20.3185 14.658 20.3185 16.22 21.8805L26.12 31.7805C27.682 33.3425 27.682 35.8745 26.12 37.4365L23.292 40.2645C21.73 41.8265 19.198 41.8265 17.636 40.2645L7.73595 30.3645C6.17395 28.8025 6.17395 26.2705 7.73595 24.7085V24.7085Z" stroke="#410F9E" stroke-width="2" stroke-linecap="round" stroke-linejoin="round"/>
<path fill-rule="evenodd" clip-rule="evenodd" d="M7.73595 24.7085L10.564 21.8805C12.126 20.3185 14.658 20.3185 16.22 21.8805L26.12 31.7805C27.682 33.3425 27.682 35.8745 26.12 37.4365L23.292 40.2645C21.73 41.8265 19.198 41.8265 17.636 40.2645L7.73595 30.3645C6.17395 28.8025 6.17395 26.2705 7.73595 24.7085V24.7085Z" stroke="#453888" stroke-width="2" stroke-linecap="round" stroke-linejoin="round"/>
<path fill-rule="evenodd" clip-rule="evenodd" d="M7.73595 24.7085L10.564 21.8805C12.126 20.3185 14.658 20.3185 16.22 21.8805L26.12 31.7805C27.682 33.3425 27.682 35.8745 26.12 37.4365L23.292 40.2645C21.73 41.8265 19.198 41.8265 17.636 40.2645L7.73595 30.3645C6.17395 28.8025 6.17395 26.2705 7.73595 24.7085V24.7085Z" stroke="#5946D7" stroke-width="2" stroke-linecap="round" stroke-linejoin="round"/>
</g>
<g id="Path_2">
<path d="M9.14039 31.7803L4.90039 36.0203" stroke="#2E1066" stroke-width="2" stroke-linecap="round" stroke-linejoin="round"/>
<path d="M9.14039 31.7803L4.90039 36.0203" stroke="#410F9E" stroke-width="2" stroke-linecap="round" stroke-linejoin="round"/>
<path d="M9.14039 31.7803L4.90039 36.0203" stroke="#453888" stroke-width="2" stroke-linecap="round" stroke-linejoin="round"/>
<path d="M9.14039 31.7803L4.90039 36.0203" stroke="#5946D7" stroke-width="2" stroke-linecap="round" stroke-linejoin="round"/>
</g>
<g id="Path_3">
<path d="M12.5195 43.6199L16.7595 39.3799" stroke="#2E1066" stroke-width="2" stroke-linecap="round" stroke-linejoin="round"/>
<path d="M12.5195 43.6199L16.7595 39.3799" stroke="#410F9E" stroke-width="2" stroke-linecap="round" stroke-linejoin="round"/>
<path d="M12.5195 43.6199L16.7595 39.3799" stroke="#453888" stroke-width="2" stroke-linecap="round" stroke-linejoin="round"/>
<path d="M12.5195 43.6199L16.7595 39.3799" stroke="#5946D7" stroke-width="2" stroke-linecap="round" stroke-linejoin="round"/>
</g>
<g id="Path_4">
<path d="M33.1915 7.73579L30.3635 4.90779C29.5815 4.12579 28.3155 4.12579 27.5355 4.90779L25.2935 7.14979C24.9175 7.52579 24.7075 8.03379 24.7075 8.56379V13.3918L21.8795 16.2198C21.0975 17.0018 21.0975 18.2678 21.8795 19.0478L28.9515 26.1198C29.7335 26.9018 30.9995 26.9018 31.7795 26.1198L34.6075 23.2918H39.4355C39.9655 23.2918 40.4755 23.0818 40.8495 22.7058L43.0915 20.4638C43.8735 19.6818 43.8735 18.4158 43.0915 17.6358L40.2635 14.8078" stroke="#2E1066" stroke-width="2" stroke-linecap="round" stroke-linejoin="round"/>
<path d="M33.1915 7.73579L30.3635 4.90779C29.5815 4.12579 28.3155 4.12579 27.5355 4.90779L25.2935 7.14979C24.9175 7.52579 24.7075 8.03379 24.7075 8.56379V13.3918L21.8795 16.2198C21.0975 17.0018 21.0975 18.2678 21.8795 19.0478L28.9515 26.1198C29.7335 26.9018 30.9995 26.9018 31.7795 26.1198L34.6075 23.2918H39.4355C39.9655 23.2918 40.4755 23.0818 40.8495 22.7058L43.0915 20.4638C43.8735 19.6818 43.8735 18.4158 43.0915 17.6358L40.2635 14.8078" stroke="#410F9E" stroke-width="2" stroke-linecap="round" stroke-linejoin="round"/>
<path d="M33.1915 7.73579L30.3635 4.90779C29.5815 4.12579 28.3155 4.12579 27.5355 4.90779L25.2935 7.14979C24.9175 7.52579 24.7075 8.03379 24.7075 8.56379V13.3918L21.8795 16.2198C21.0975 17.0018 21.0975 18.2678 21.8795 19.0478L28.9515 26.1198C29.7335 26.9018 30.9995 26.9018 31.7795 26.1198L34.6075 23.2918H39.4355C39.9655 23.2918 40.4755 23.0818 40.8495 22.7058L43.0915 20.4638C43.8735 19.6818 43.8735 18.4158 43.0915 17.6358L40.2635 14.8078" stroke="#453888" stroke-width="2" stroke-linecap="round" stroke-linejoin="round"/>
<path d="M33.1915 7.73579L30.3635 4.90779C29.5815 4.12579 28.3155 4.12579 27.5355 4.90779L25.2935 7.14979C24.9175 7.52579 24.7075 8.03379 24.7075 8.56379V13.3918L21.8795 16.2198C21.0975 17.0018 21.0975 18.2678 21.8795 19.0478L28.9515 26.1198C29.7335 26.9018 30.9995 26.9018 31.7795 26.1198L34.6075 23.2918H39.4355C39.9655 23.2918 40.4755 23.0818 40.8495 22.7058L43.0915 20.4638C43.8735 19.6818 43.8735 18.4158 43.0915 17.6358L40.2635 14.8078" stroke="#5946D7" stroke-width="2" stroke-linecap="round" stroke-linejoin="round"/>
</g>
<g id="Path_5">
<path d="M30.5 19.5L28.5 17.5" stroke="#2E1066" stroke-width="2" stroke-linecap="round" stroke-linejoin="round"/>
<path d="M30.5 19.5L28.5 17.5" stroke="#410F9E" stroke-width="2" stroke-linecap="round" stroke-linejoin="round"/>
<path d="M30.5 19.5L28.5 17.5" stroke="#453888" stroke-width="2" stroke-linecap="round" stroke-linejoin="round"/>
<path d="M30.5 19.5L28.5 17.5" stroke="#5946D7" stroke-width="2" stroke-linecap="round" stroke-linejoin="round"/>
</g>
<g id="Path_6">
<path d="M32 44V42" stroke="#2E1066" stroke-width="2" stroke-linecap="round" stroke-linejoin="round"/>
<path d="M32 44V42" stroke="#410F9E" stroke-width="2" stroke-linecap="round" stroke-linejoin="round"/>
<path d="M32 44V42" stroke="#453888" stroke-width="2" stroke-linecap="round" stroke-linejoin="round"/>
<path d="M32 44V42" stroke="#5946D7" stroke-width="2" stroke-linecap="round" stroke-linejoin="round"/>
</g>
<g id="Path_7">
<path d="M44 32H42" stroke="#2E1066" stroke-width="2" stroke-linecap="round" stroke-linejoin="round"/>
<path d="M44 32H42" stroke="#410F9E" stroke-width="2" stroke-linecap="round" stroke-linejoin="round"/>
<path d="M44 32H42" stroke="#453888" stroke-width="2" stroke-linecap="round" stroke-linejoin="round"/>
<path d="M44 32H42" stroke="#5946D7" stroke-width="2" stroke-linecap="round" stroke-linejoin="round"/>
</g>
<g id="Path_8">
<path d="M42 42L40 40" stroke="#2E1066" stroke-width="2" stroke-linecap="round" stroke-linejoin="round"/>
<path d="M42 42L40 40" stroke="#410F9E" stroke-width="2" stroke-linecap="round" stroke-linejoin="round"/>
<path d="M42 42L40 40" stroke="#453888" stroke-width="2" stroke-linecap="round" stroke-linejoin="round"/>
<path d="M42 42L40 40" stroke="#5946D7" stroke-width="2" stroke-linecap="round" stroke-linejoin="round"/>
</g>
<g id="Path_9">
<path d="M16 4V6" stroke="#2E1066" stroke-width="2" stroke-linecap="round" stroke-linejoin="round"/>
<path d="M16 4V6" stroke="#410F9E" stroke-width="2" stroke-linecap="round" stroke-linejoin="round"/>
<path d="M16 4V6" stroke="#453888" stroke-width="2" stroke-linecap="round" stroke-linejoin="round"/>
<path d="M16 4V6" stroke="#5946D7" stroke-width="2" stroke-linecap="round" stroke-linejoin="round"/>
</g>
<g id="Path_10">
<path d="M4 16H6" stroke="#2E1066" stroke-width="2" stroke-linecap="round" stroke-linejoin="round"/>
<path d="M4 16H6" stroke="#410F9E" stroke-width="2" stroke-linecap="round" stroke-linejoin="round"/>
<path d="M4 16H6" stroke="#453888" stroke-width="2" stroke-linecap="round" stroke-linejoin="round"/>
<path d="M4 16H6" stroke="#5946D7" stroke-width="2" stroke-linecap="round" stroke-linejoin="round"/>
</g>
<g id="Path_11">
<path d="M6 6L8 8" stroke="#2E1066" stroke-width="2" stroke-linecap="round" stroke-linejoin="round"/>
<path d="M6 6L8 8" stroke="#410F9E" stroke-width="2" stroke-linecap="round" stroke-linejoin="round"/>
<path d="M6 6L8 8" stroke="#453888" stroke-width="2" stroke-linecap="round" stroke-linejoin="round"/>
<path d="M6 6L8 8" stroke="#5946D7" stroke-width="2" stroke-linecap="round" stroke-linejoin="round"/>
</g>
<g id="Path_12">
<path d="M15 29L19 33" stroke="#2E1066" stroke-width="2" stroke-linecap="round" stroke-linejoin="round"/>
<path d="M15 29L19 33" stroke="#410F9E" stroke-width="2" stroke-linecap="round" stroke-linejoin="round"/>
<path d="M15 29L19 33" stroke="#453888" stroke-width="2" stroke-linecap="round" stroke-linejoin="round"/>
<path d="M15 29L19 33" stroke="#5946D7" stroke-width="2" stroke-linecap="round" stroke-linejoin="round"/>
</g>
<g id="Path_13">
<path d="M43.0919 11.9802L38.8499 16.2222C38.0679 17.0042 36.8019 17.0042 36.0219 16.2222L31.7779 11.9802C30.9959 11.1982 30.9959 9.93216 31.7779 9.15216L36.0199 4.91016" stroke="#2E1066" stroke-width="2" stroke-linecap="round" stroke-linejoin="round"/>
<path d="M43.0919 11.9802L38.8499 16.2222C38.0679 17.0042 36.8019 17.0042 36.0219 16.2222L31.7779 11.9802C30.9959 11.1982 30.9959 9.93216 31.7779 9.15216L36.0199 4.91016" stroke="#410F9E" stroke-width="2" stroke-linecap="round" stroke-linejoin="round"/>
<path d="M43.0919 11.9802L38.8499 16.2222C38.0679 17.0042 36.8019 17.0042 36.0219 16.2222L31.7779 11.9802C30.9959 11.1982 30.9959 9.93216 31.7779 9.15216L36.0199 4.91016" stroke="#453888" stroke-width="2" stroke-linecap="round" stroke-linejoin="round"/>
<path d="M43.0919 11.9802L38.8499 16.2222C38.0679 17.0042 36.8019 17.0042 36.0219 16.2222L31.7779 11.9802C30.9959 11.1982 30.9959 9.93216 31.7779 9.15216L36.0199 4.91016" stroke="#5946D7" stroke-width="2" stroke-linecap="round" stroke-linejoin="round"/>
</g>
</g>
</g>
</g>
</svg>
