<svg width="24" height="24" viewBox="0 0 24 24" fill="none" xmlns="http://www.w3.org/2000/svg">
<g id="Shopping, Ecommerce/Shopping Cart">
<g id="Group">
<g id="Group_2">
<path id="Path" d="M5.87305 7L7.40805 14.246C7.61905 15.244 8.54805 15.923 9.56405 15.822L16.38 15.14C17.22 15.056 17.916 14.454 18.121 13.635L19.469 8.243C19.627 7.611 19.15 7 18.499 7H10.186" stroke="white" stroke-width="2" stroke-linecap="round" stroke-linejoin="round"/>
<path id="Path_2" d="M5.874 7L5.224 4H3.5" stroke="white" stroke-width="2" stroke-linecap="round" stroke-linejoin="round"/>
<path id="Path_3" d="M17.1093 19.2668C16.9073 19.2668 16.7433 19.4308 16.7453 19.6328C16.7453 19.8348 16.9093 19.9988 17.1113 19.9988C17.3133 19.9988 17.4773 19.8348 17.4773 19.6328C17.4763 19.4308 17.3123 19.2668 17.1093 19.2668" stroke="white" stroke-width="2" stroke-linecap="round" stroke-linejoin="round"/>
<path id="Path_4" d="M8.69773 19.2673C8.49573 19.2673 8.33173 19.4313 8.33373 19.6333C8.33173 19.8363 8.49673 20.0003 8.69873 20.0003C8.90073 20.0003 9.06473 19.8363 9.06473 19.6343C9.06473 19.4313 8.90073 19.2673 8.69773 19.2673" stroke="white" stroke-width="2" stroke-linecap="round" stroke-linejoin="round"/>
</g>
</g>
</g>
</svg>
