<svg width="32" height="32" viewBox="0 0 32 32" fill="none" xmlns="http://www.w3.org/2000/svg">
<g id="Shopping, Ecommerce/Shopping Cart">
<g id="Group">
<g id="Group_2">
<g id="Path">
<path d="M7.83203 9.33301L9.8787 18.9943C10.16 20.325 11.3987 21.2303 12.7534 21.0957L21.8414 20.1863C22.9614 20.0743 23.8894 19.2717 24.1627 18.1797L25.96 10.9903C26.1707 10.1477 25.5347 9.33301 24.6667 9.33301H13.5827" stroke="#2E1066" stroke-width="2" stroke-linecap="round" stroke-linejoin="round"/>
<path d="M7.83203 9.33301L9.8787 18.9943C10.16 20.325 11.3987 21.2303 12.7534 21.0957L21.8414 20.1863C22.9614 20.0743 23.8894 19.2717 24.1627 18.1797L25.96 10.9903C26.1707 10.1477 25.5347 9.33301 24.6667 9.33301H13.5827" stroke="#410F9E" stroke-width="2" stroke-linecap="round" stroke-linejoin="round"/>
<path d="M7.83203 9.33301L9.8787 18.9943C10.16 20.325 11.3987 21.2303 12.7534 21.0957L21.8414 20.1863C22.9614 20.0743 23.8894 19.2717 24.1627 18.1797L25.96 10.9903C26.1707 10.1477 25.5347 9.33301 24.6667 9.33301H13.5827" stroke="#453888" stroke-width="2" stroke-linecap="round" stroke-linejoin="round"/>
<path d="M7.83203 9.33301L9.8787 18.9943C10.16 20.325 11.3987 21.2303 12.7534 21.0957L21.8414 20.1863C22.9614 20.0743 23.8894 19.2717 24.1627 18.1797L25.96 10.9903C26.1707 10.1477 25.5347 9.33301 24.6667 9.33301H13.5827" stroke="#5946D7" stroke-width="2" stroke-linecap="round" stroke-linejoin="round"/>
<path d="M7.83203 9.33301L9.8787 18.9943C10.16 20.325 11.3987 21.2303 12.7534 21.0957L21.8414 20.1863C22.9614 20.0743 23.8894 19.2717 24.1627 18.1797L25.96 10.9903C26.1707 10.1477 25.5347 9.33301 24.6667 9.33301H13.5827" stroke="#6B59CC" stroke-width="2" stroke-linecap="round" stroke-linejoin="round"/>
</g>
<g id="Path_2">
<path d="M7.83135 9.33301L6.96468 5.33301H4.66602" stroke="#2E1066" stroke-width="2" stroke-linecap="round" stroke-linejoin="round"/>
<path d="M7.83135 9.33301L6.96468 5.33301H4.66602" stroke="#410F9E" stroke-width="2" stroke-linecap="round" stroke-linejoin="round"/>
<path d="M7.83135 9.33301L6.96468 5.33301H4.66602" stroke="#453888" stroke-width="2" stroke-linecap="round" stroke-linejoin="round"/>
<path d="M7.83135 9.33301L6.96468 5.33301H4.66602" stroke="#5946D7" stroke-width="2" stroke-linecap="round" stroke-linejoin="round"/>
<path d="M7.83135 9.33301L6.96468 5.33301H4.66602" stroke="#6B59CC" stroke-width="2" stroke-linecap="round" stroke-linejoin="round"/>
</g>
<g id="Path_3">
<path d="M22.8124 25.6894C22.5431 25.6894 22.3244 25.9081 22.3271 26.1774C22.3271 26.4467 22.5458 26.6654 22.8151 26.6654C23.0845 26.6654 23.3031 26.4467 23.3031 26.1774C23.3018 25.9081 23.0831 25.6894 22.8124 25.6894" stroke="#2E1066" stroke-width="2" stroke-linecap="round" stroke-linejoin="round"/>
<path d="M22.8124 25.6894C22.5431 25.6894 22.3244 25.9081 22.3271 26.1774C22.3271 26.4467 22.5458 26.6654 22.8151 26.6654C23.0845 26.6654 23.3031 26.4467 23.3031 26.1774C23.3018 25.9081 23.0831 25.6894 22.8124 25.6894" stroke="#410F9E" stroke-width="2" stroke-linecap="round" stroke-linejoin="round"/>
<path d="M22.8124 25.6894C22.5431 25.6894 22.3244 25.9081 22.3271 26.1774C22.3271 26.4467 22.5458 26.6654 22.8151 26.6654C23.0845 26.6654 23.3031 26.4467 23.3031 26.1774C23.3018 25.9081 23.0831 25.6894 22.8124 25.6894" stroke="#453888" stroke-width="2" stroke-linecap="round" stroke-linejoin="round"/>
<path d="M22.8124 25.6894C22.5431 25.6894 22.3244 25.9081 22.3271 26.1774C22.3271 26.4467 22.5458 26.6654 22.8151 26.6654C23.0845 26.6654 23.3031 26.4467 23.3031 26.1774C23.3018 25.9081 23.0831 25.6894 22.8124 25.6894" stroke="#5946D7" stroke-width="2" stroke-linecap="round" stroke-linejoin="round"/>
<path d="M22.8124 25.6894C22.5431 25.6894 22.3244 25.9081 22.3271 26.1774C22.3271 26.4467 22.5458 26.6654 22.8151 26.6654C23.0845 26.6654 23.3031 26.4467 23.3031 26.1774C23.3018 25.9081 23.0831 25.6894 22.8124 25.6894" stroke="#6B59CC" stroke-width="2" stroke-linecap="round" stroke-linejoin="round"/>
</g>
<g id="Path_4">
<path d="M11.5963 25.6897C11.327 25.6897 11.1083 25.9084 11.111 26.1777C11.1083 26.4484 11.3283 26.6671 11.5977 26.6671C11.867 26.6671 12.0857 26.4484 12.0857 26.1791C12.0857 25.9084 11.867 25.6897 11.5963 25.6897" stroke="#2E1066" stroke-width="2" stroke-linecap="round" stroke-linejoin="round"/>
<path d="M11.5963 25.6897C11.327 25.6897 11.1083 25.9084 11.111 26.1777C11.1083 26.4484 11.3283 26.6671 11.5977 26.6671C11.867 26.6671 12.0857 26.4484 12.0857 26.1791C12.0857 25.9084 11.867 25.6897 11.5963 25.6897" stroke="#410F9E" stroke-width="2" stroke-linecap="round" stroke-linejoin="round"/>
<path d="M11.5963 25.6897C11.327 25.6897 11.1083 25.9084 11.111 26.1777C11.1083 26.4484 11.3283 26.6671 11.5977 26.6671C11.867 26.6671 12.0857 26.4484 12.0857 26.1791C12.0857 25.9084 11.867 25.6897 11.5963 25.6897" stroke="#453888" stroke-width="2" stroke-linecap="round" stroke-linejoin="round"/>
<path d="M11.5963 25.6897C11.327 25.6897 11.1083 25.9084 11.111 26.1777C11.1083 26.4484 11.3283 26.6671 11.5977 26.6671C11.867 26.6671 12.0857 26.4484 12.0857 26.1791C12.0857 25.9084 11.867 25.6897 11.5963 25.6897" stroke="#5946D7" stroke-width="2" stroke-linecap="round" stroke-linejoin="round"/>
<path d="M11.5963 25.6897C11.327 25.6897 11.1083 25.9084 11.111 26.1777C11.1083 26.4484 11.3283 26.6671 11.5977 26.6671C11.867 26.6671 12.0857 26.4484 12.0857 26.1791C12.0857 25.9084 11.867 25.6897 11.5963 25.6897" stroke="#6B59CC" stroke-width="2" stroke-linecap="round" stroke-linejoin="round"/>
</g>
</g>
</g>
</g>
</svg>
