<svg width="48" height="48" viewBox="0 0 48 48" fill="none" xmlns="http://www.w3.org/2000/svg">
<g id="Car, Service, Parts/short-light-dashboard">
<g id="Group">
<g id="Path">
<path fill-rule="evenodd" clip-rule="evenodd" d="M28.0981 32.1536V32.1536C26.8287 32.3653 25.5305 32.0078 24.5485 31.1761C23.5664 30.3444 23 29.1227 23 27.8358V20.1646C23 18.8777 23.5664 17.656 24.5485 16.8243C25.5305 15.9926 26.8287 15.6351 28.0981 15.8468V15.8468C32.0839 16.511 35.0052 19.9595 35.005 24.0002V24.0002C35.0052 28.0409 32.0839 31.4894 28.0981 32.1536V32.1536Z" stroke="#2E1066" stroke-width="2" stroke-linecap="round" stroke-linejoin="round"/>
<path fill-rule="evenodd" clip-rule="evenodd" d="M28.0981 32.1536V32.1536C26.8287 32.3653 25.5305 32.0078 24.5485 31.1761C23.5664 30.3444 23 29.1227 23 27.8358V20.1646C23 18.8777 23.5664 17.656 24.5485 16.8243C25.5305 15.9926 26.8287 15.6351 28.0981 15.8468V15.8468C32.0839 16.511 35.0052 19.9595 35.005 24.0002V24.0002C35.0052 28.0409 32.0839 31.4894 28.0981 32.1536V32.1536Z" stroke="#410F9E" stroke-width="2" stroke-linecap="round" stroke-linejoin="round"/>
<path fill-rule="evenodd" clip-rule="evenodd" d="M28.0981 32.1536V32.1536C26.8287 32.3653 25.5305 32.0078 24.5485 31.1761C23.5664 30.3444 23 29.1227 23 27.8358V20.1646C23 18.8777 23.5664 17.656 24.5485 16.8243C25.5305 15.9926 26.8287 15.6351 28.0981 15.8468V15.8468C32.0839 16.511 35.0052 19.9595 35.005 24.0002V24.0002C35.0052 28.0409 32.0839 31.4894 28.0981 32.1536V32.1536Z" stroke="#453888" stroke-width="2" stroke-linecap="round" stroke-linejoin="round"/>
<path fill-rule="evenodd" clip-rule="evenodd" d="M28.0981 32.1536V32.1536C26.8287 32.3653 25.5305 32.0078 24.5485 31.1761C23.5664 30.3444 23 29.1227 23 27.8358V20.1646C23 18.8777 23.5664 17.656 24.5485 16.8243C25.5305 15.9926 26.8287 15.6351 28.0981 15.8468V15.8468C32.0839 16.511 35.0052 19.9595 35.005 24.0002V24.0002C35.0052 28.0409 32.0839 31.4894 28.0981 32.1536V32.1536Z" stroke="#5946D7" stroke-width="2" stroke-linecap="round" stroke-linejoin="round"/>
</g>
<g id="Path_2">
<path d="M13.9961 19.9987L17.9978 18.9983" stroke="#2E1066" stroke-width="2" stroke-linecap="round" stroke-linejoin="round"/>
<path d="M13.9961 19.9987L17.9978 18.9983" stroke="#410F9E" stroke-width="2" stroke-linecap="round" stroke-linejoin="round"/>
<path d="M13.9961 19.9987L17.9978 18.9983" stroke="#453888" stroke-width="2" stroke-linecap="round" stroke-linejoin="round"/>
<path d="M13.9961 19.9987L17.9978 18.9983" stroke="#5946D7" stroke-width="2" stroke-linecap="round" stroke-linejoin="round"/>
</g>
<g id="Path_3">
<path d="M13.9961 25.0006L17.9978 24.0002" stroke="#2E1066" stroke-width="2" stroke-linecap="round" stroke-linejoin="round"/>
<path d="M13.9961 25.0006L17.9978 24.0002" stroke="#410F9E" stroke-width="2" stroke-linecap="round" stroke-linejoin="round"/>
<path d="M13.9961 25.0006L17.9978 24.0002" stroke="#453888" stroke-width="2" stroke-linecap="round" stroke-linejoin="round"/>
<path d="M13.9961 25.0006L17.9978 24.0002" stroke="#5946D7" stroke-width="2" stroke-linecap="round" stroke-linejoin="round"/>
</g>
<g id="Path_4">
<path fill-rule="evenodd" clip-rule="evenodd" d="M23.9997 42.0082V42.0082C14.0544 42.0082 5.99219 33.9459 5.99219 24.0007V24.0007C5.99219 14.0554 14.0544 5.99316 23.9997 5.99316V5.99316C33.945 5.99316 42.0072 14.0554 42.0072 24.0007V24.0007C42.0072 33.9459 33.945 42.0082 23.9997 42.0082V42.0082Z" stroke="#2E1066" stroke-width="2" stroke-linecap="round" stroke-linejoin="round"/>
<path fill-rule="evenodd" clip-rule="evenodd" d="M23.9997 42.0082V42.0082C14.0544 42.0082 5.99219 33.9459 5.99219 24.0007V24.0007C5.99219 14.0554 14.0544 5.99316 23.9997 5.99316V5.99316C33.945 5.99316 42.0072 14.0554 42.0072 24.0007V24.0007C42.0072 33.9459 33.945 42.0082 23.9997 42.0082V42.0082Z" stroke="#410F9E" stroke-width="2" stroke-linecap="round" stroke-linejoin="round"/>
<path fill-rule="evenodd" clip-rule="evenodd" d="M23.9997 42.0082V42.0082C14.0544 42.0082 5.99219 33.9459 5.99219 24.0007V24.0007C5.99219 14.0554 14.0544 5.99316 23.9997 5.99316V5.99316C33.945 5.99316 42.0072 14.0554 42.0072 24.0007V24.0007C42.0072 33.9459 33.945 42.0082 23.9997 42.0082V42.0082Z" stroke="#453888" stroke-width="2" stroke-linecap="round" stroke-linejoin="round"/>
<path fill-rule="evenodd" clip-rule="evenodd" d="M23.9997 42.0082V42.0082C14.0544 42.0082 5.99219 33.9459 5.99219 24.0007V24.0007C5.99219 14.0554 14.0544 5.99316 23.9997 5.99316V5.99316C33.945 5.99316 42.0072 14.0554 42.0072 24.0007V24.0007C42.0072 33.9459 33.945 42.0082 23.9997 42.0082V42.0082Z" stroke="#5946D7" stroke-width="2" stroke-linecap="round" stroke-linejoin="round"/>
</g>
<g id="Path_5">
<path d="M13.9961 30.0026L17.9978 29.0022" stroke="#2E1066" stroke-width="2" stroke-linecap="round" stroke-linejoin="round"/>
<path d="M13.9961 30.0026L17.9978 29.0022" stroke="#410F9E" stroke-width="2" stroke-linecap="round" stroke-linejoin="round"/>
<path d="M13.9961 30.0026L17.9978 29.0022" stroke="#453888" stroke-width="2" stroke-linecap="round" stroke-linejoin="round"/>
<path d="M13.9961 30.0026L17.9978 29.0022" stroke="#5946D7" stroke-width="2" stroke-linecap="round" stroke-linejoin="round"/>
</g>
</g>
</g>
</svg>
