<svg width="48" height="48" viewBox="0 0 48 48" fill="none" xmlns="http://www.w3.org/2000/svg">
<g id="Car, Service, Parts/Wheel">
<g id="Group">
<g id="Group_2">
<g id="Path">
<path d="M24 20V10" stroke="#2E1066" stroke-width="2" stroke-linecap="round" stroke-linejoin="round"/>
<path d="M24 20V10" stroke="#410F9E" stroke-width="2" stroke-linecap="round" stroke-linejoin="round"/>
<path d="M24 20V10" stroke="#453888" stroke-width="2" stroke-linecap="round" stroke-linejoin="round"/>
<path d="M24 20V10" stroke="#5946D7" stroke-width="2" stroke-linecap="round" stroke-linejoin="round"/>
</g>
<g id="Path_2">
<path d="M24 38V28" stroke="#2E1066" stroke-width="2" stroke-linecap="round" stroke-linejoin="round"/>
<path d="M24 38V28" stroke="#410F9E" stroke-width="2" stroke-linecap="round" stroke-linejoin="round"/>
<path d="M24 38V28" stroke="#453888" stroke-width="2" stroke-linecap="round" stroke-linejoin="round"/>
<path d="M24 38V28" stroke="#5946D7" stroke-width="2" stroke-linecap="round" stroke-linejoin="round"/>
</g>
<g id="Path_3">
<path d="M26.8203 21.1796L33.9003 14.0996" stroke="#2E1066" stroke-width="2" stroke-linecap="round" stroke-linejoin="round"/>
<path d="M26.8203 21.1796L33.9003 14.0996" stroke="#410F9E" stroke-width="2" stroke-linecap="round" stroke-linejoin="round"/>
<path d="M26.8203 21.1796L33.9003 14.0996" stroke="#453888" stroke-width="2" stroke-linecap="round" stroke-linejoin="round"/>
<path d="M26.8203 21.1796L33.9003 14.0996" stroke="#5946D7" stroke-width="2" stroke-linecap="round" stroke-linejoin="round"/>
</g>
<g id="Path_4">
<path d="M14.0996 33.9003L21.1796 26.8203" stroke="#2E1066" stroke-width="2" stroke-linecap="round" stroke-linejoin="round"/>
<path d="M14.0996 33.9003L21.1796 26.8203" stroke="#410F9E" stroke-width="2" stroke-linecap="round" stroke-linejoin="round"/>
<path d="M14.0996 33.9003L21.1796 26.8203" stroke="#453888" stroke-width="2" stroke-linecap="round" stroke-linejoin="round"/>
<path d="M14.0996 33.9003L21.1796 26.8203" stroke="#5946D7" stroke-width="2" stroke-linecap="round" stroke-linejoin="round"/>
</g>
<g id="Path_5">
<path d="M28 24H38" stroke="#2E1066" stroke-width="2" stroke-linecap="round" stroke-linejoin="round"/>
<path d="M28 24H38" stroke="#410F9E" stroke-width="2" stroke-linecap="round" stroke-linejoin="round"/>
<path d="M28 24H38" stroke="#453888" stroke-width="2" stroke-linecap="round" stroke-linejoin="round"/>
<path d="M28 24H38" stroke="#5946D7" stroke-width="2" stroke-linecap="round" stroke-linejoin="round"/>
</g>
<g id="Path_6">
<path d="M10 24H20" stroke="#2E1066" stroke-width="2" stroke-linecap="round" stroke-linejoin="round"/>
<path d="M10 24H20" stroke="#410F9E" stroke-width="2" stroke-linecap="round" stroke-linejoin="round"/>
<path d="M10 24H20" stroke="#453888" stroke-width="2" stroke-linecap="round" stroke-linejoin="round"/>
<path d="M10 24H20" stroke="#5946D7" stroke-width="2" stroke-linecap="round" stroke-linejoin="round"/>
</g>
<g id="Path_7">
<path d="M26.8203 26.8203L33.9003 33.9003" stroke="#2E1066" stroke-width="2" stroke-linecap="round" stroke-linejoin="round"/>
<path d="M26.8203 26.8203L33.9003 33.9003" stroke="#410F9E" stroke-width="2" stroke-linecap="round" stroke-linejoin="round"/>
<path d="M26.8203 26.8203L33.9003 33.9003" stroke="#453888" stroke-width="2" stroke-linecap="round" stroke-linejoin="round"/>
<path d="M26.8203 26.8203L33.9003 33.9003" stroke="#5946D7" stroke-width="2" stroke-linecap="round" stroke-linejoin="round"/>
</g>
<g id="Path_8">
<path d="M14.0996 14.0996L21.1796 21.1796" stroke="#2E1066" stroke-width="2" stroke-linecap="round" stroke-linejoin="round"/>
<path d="M14.0996 14.0996L21.1796 21.1796" stroke="#410F9E" stroke-width="2" stroke-linecap="round" stroke-linejoin="round"/>
<path d="M14.0996 14.0996L21.1796 21.1796" stroke="#453888" stroke-width="2" stroke-linecap="round" stroke-linejoin="round"/>
<path d="M14.0996 14.0996L21.1796 21.1796" stroke="#5946D7" stroke-width="2" stroke-linecap="round" stroke-linejoin="round"/>
</g>
<g id="Path_9">
<path d="M38.1421 9.85786C45.9525 17.6683 45.9525 30.3317 38.1421 38.1421C30.3316 45.9525 17.6683 45.9525 9.85786 38.1421C2.04738 30.3316 2.04738 17.6683 9.85786 9.85786C17.6683 2.04738 30.3317 2.04738 38.1421 9.85786" stroke="#2E1066" stroke-width="2" stroke-linecap="round" stroke-linejoin="round"/>
<path d="M38.1421 9.85786C45.9525 17.6683 45.9525 30.3317 38.1421 38.1421C30.3316 45.9525 17.6683 45.9525 9.85786 38.1421C2.04738 30.3316 2.04738 17.6683 9.85786 9.85786C17.6683 2.04738 30.3317 2.04738 38.1421 9.85786" stroke="#410F9E" stroke-width="2" stroke-linecap="round" stroke-linejoin="round"/>
<path d="M38.1421 9.85786C45.9525 17.6683 45.9525 30.3317 38.1421 38.1421C30.3316 45.9525 17.6683 45.9525 9.85786 38.1421C2.04738 30.3316 2.04738 17.6683 9.85786 9.85786C17.6683 2.04738 30.3317 2.04738 38.1421 9.85786" stroke="#453888" stroke-width="2" stroke-linecap="round" stroke-linejoin="round"/>
<path d="M38.1421 9.85786C45.9525 17.6683 45.9525 30.3317 38.1421 38.1421C30.3316 45.9525 17.6683 45.9525 9.85786 38.1421C2.04738 30.3316 2.04738 17.6683 9.85786 9.85786C17.6683 2.04738 30.3317 2.04738 38.1421 9.85786" stroke="#5946D7" stroke-width="2" stroke-linecap="round" stroke-linejoin="round"/>
</g>
<g id="Path_10">
<path d="M33.8995 14.1005C39.3668 19.5678 39.3668 28.4321 33.8995 33.8995C28.4321 39.3668 19.5678 39.3668 14.1005 33.8995C8.63316 28.4321 8.63316 19.5678 14.1005 14.1005C19.5678 8.63316 28.4321 8.63316 33.8995 14.1005" stroke="#2E1066" stroke-width="2" stroke-linecap="round" stroke-linejoin="round"/>
<path d="M33.8995 14.1005C39.3668 19.5678 39.3668 28.4321 33.8995 33.8995C28.4321 39.3668 19.5678 39.3668 14.1005 33.8995C8.63316 28.4321 8.63316 19.5678 14.1005 14.1005C19.5678 8.63316 28.4321 8.63316 33.8995 14.1005" stroke="#410F9E" stroke-width="2" stroke-linecap="round" stroke-linejoin="round"/>
<path d="M33.8995 14.1005C39.3668 19.5678 39.3668 28.4321 33.8995 33.8995C28.4321 39.3668 19.5678 39.3668 14.1005 33.8995C8.63316 28.4321 8.63316 19.5678 14.1005 14.1005C19.5678 8.63316 28.4321 8.63316 33.8995 14.1005" stroke="#453888" stroke-width="2" stroke-linecap="round" stroke-linejoin="round"/>
<path d="M33.8995 14.1005C39.3668 19.5678 39.3668 28.4321 33.8995 33.8995C28.4321 39.3668 19.5678 39.3668 14.1005 33.8995C8.63316 28.4321 8.63316 19.5678 14.1005 14.1005C19.5678 8.63316 28.4321 8.63316 33.8995 14.1005" stroke="#5946D7" stroke-width="2" stroke-linecap="round" stroke-linejoin="round"/>
</g>
<g id="Path_11">
<path d="M26.8284 21.1716C28.3905 22.7337 28.3905 25.2663 26.8284 26.8284C25.2663 28.3905 22.7337 28.3905 21.1716 26.8284C19.6095 25.2663 19.6095 22.7337 21.1716 21.1716C22.7337 19.6095 25.2663 19.6095 26.8284 21.1716" stroke="#2E1066" stroke-width="2" stroke-linecap="round" stroke-linejoin="round"/>
<path d="M26.8284 21.1716C28.3905 22.7337 28.3905 25.2663 26.8284 26.8284C25.2663 28.3905 22.7337 28.3905 21.1716 26.8284C19.6095 25.2663 19.6095 22.7337 21.1716 21.1716C22.7337 19.6095 25.2663 19.6095 26.8284 21.1716" stroke="#410F9E" stroke-width="2" stroke-linecap="round" stroke-linejoin="round"/>
<path d="M26.8284 21.1716C28.3905 22.7337 28.3905 25.2663 26.8284 26.8284C25.2663 28.3905 22.7337 28.3905 21.1716 26.8284C19.6095 25.2663 19.6095 22.7337 21.1716 21.1716C22.7337 19.6095 25.2663 19.6095 26.8284 21.1716" stroke="#453888" stroke-width="2" stroke-linecap="round" stroke-linejoin="round"/>
<path d="M26.8284 21.1716C28.3905 22.7337 28.3905 25.2663 26.8284 26.8284C25.2663 28.3905 22.7337 28.3905 21.1716 26.8284C19.6095 25.2663 19.6095 22.7337 21.1716 21.1716C22.7337 19.6095 25.2663 19.6095 26.8284 21.1716" stroke="#5946D7" stroke-width="2" stroke-linecap="round" stroke-linejoin="round"/>
</g>
</g>
</g>
</g>
</svg>
